<svg xmlns="http://www.w3.org/2000/svg" version="1.1" xmlns:xlink="http://www.w3.org/1999/xlink" xmlns:svgjs="http://svgjs.dev/svgjs" viewBox="0 0 800 800"><defs><linearGradient x1="50%" y1="0%" x2="50%" y2="100%" id="cccloud-grad"><stop stop-color="#E0F2F7" stop-opacity="1" offset="0%"></stop><stop stop-color="#FFFFFF" stop-opacity="1" offset="100%"></stop></linearGradient></defs><g fill="url(#cccloud-grad)" id="cloud" transform="matrix(1,0,0,1,-130,40)"><path d="M 541.3792523935044 421.31658379836017 A  85 85 0 1 1 132.0794136290683 470.0104179853573 A  85 85 0 1 1 85.05748961922257 233.28109039750052 A  85 85 0 1 1 374.03343735573026 152.9780484522546 A  85 85 0 1 1 750.7836988372876 236.41586386996664 A  85 85 0 1 1 1148.4325028999756 202.50781843410812 A  85 85 0 1 1 1285.6321467350676 494.77533577159534 A  85 85 0 1 1 922.309269796292 507.1577874742301 A  85 85 0 1 1 541.3792523935044 421.31658379836017 Z" stroke-linecap="round" stroke-linejoin="round"></path></g></svg>